<svg width="28" height="28" viewBox="0 0 28 28" fill="none" xmlns="http://www.w3.org/2000/svg">
<path d="M14 7.33335C13.2666 7.33335 12.6666 7.93335 12.6666 8.66669V12.6667H8.66663C7.93329 12.6667 7.33329 13.2667 7.33329 14C7.33329 14.7334 7.93329 15.3334 8.66663 15.3334H12.6666V19.3334C12.6666 20.0667 13.2666 20.6667 14 20.6667C14.7333 20.6667 15.3333 20.0667 15.3333 19.3334V15.3334H19.3333C20.0666 15.3334 20.6666 14.7334 20.6666 14C20.6666 13.2667 20.0666 12.6667 19.3333 12.6667H15.3333V8.66669C15.3333 7.93335 14.7333 7.33335 14 7.33335ZM14 0.666687C6.63996 0.666687 0.666626 6.64002 0.666626 14C0.666626 21.36 6.63996 27.3334 14 27.3334C21.36 27.3334 27.3333 21.36 27.3333 14C27.3333 6.64002 21.36 0.666687 14 0.666687ZM14 24.6667C8.11996 24.6667 3.33329 19.88 3.33329 14C3.33329 8.12002 8.11996 3.33335 14 3.33335C19.88 3.33335 24.6666 8.12002 24.6666 14C24.6666 19.88 19.88 24.6667 14 24.6667Z" fill="black"/>
</svg>
