<svg width="24" height="24" viewBox="0 0 24 24" fill="none" xmlns="http://www.w3.org/2000/svg">
<path d="M21.3333 0H2.66667C1.2 0 0 1.2 0 2.66667V21.3333C0 22.8 1.2 24 2.66667 24H21.3333C22.8 24 24 22.8 24 21.3333V2.66667C24 1.2 22.8 0 21.3333 0ZM10.28 17.72C9.76 18.24 8.92 18.24 8.4 17.72L3.61333 12.9333C3.09333 12.4133 3.09333 11.5733 3.61333 11.0533C4.13333 10.5333 4.97333 10.5333 5.49333 11.0533L9.33333 14.8933L18.5067 5.72C19.0267 5.2 19.8667 5.2 20.3867 5.72C20.9067 6.24 20.9067 7.08 20.3867 7.6L10.28 17.72Z" fill="black"/>
</svg>
